<?xml version="1.0" standalone="no"?><!DOCTYPE svg PUBLIC "-//W3C//DTD SVG 1.1//EN" "http://www.w3.org/Graphics/SVG/1.1/DTD/svg11.dtd"><svg class="icon" height="512" viewBox="0 0 1024 1024" version="1.1" xmlns="http://www.w3.org/2000/svg"><path d="M808.791 75.543c37.099 0 72.161 14.549 98.639 41.027s41.027 61.54 41.027 98.639v593.582c0 37.099-14.549 72.161-41.027 98.639s-61.54 41.027-98.639 41.027H215.209c-37.099 0-72.161-14.549-98.639-41.027s-41.027-61.54-41.027-98.639V215.209c0-37.099 14.549-72.161 41.027-98.639s61.54-41.027 98.639-41.027h593.582m0-8.729H215.209c-81.618 0-148.395 66.778-148.395 148.395v593.582c0 81.618 66.778 148.395 148.395 148.395h593.582c81.618 0 148.395-66.778 148.395-148.395V215.209c0-81.617-66.778-148.395-148.395-148.395zM308.756 260.31h252.418c46.555 0 83.945 10.62 112.024 32.007 28.079 21.386 42.191 53.539 42.191 96.748 0 26.187-6.401 48.592-19.204 67.214s-31.134 33.171-54.994 43.355v1.455c32.007 6.838 56.303 21.968 72.743 45.392 16.44 23.569 24.733 52.957 24.733 88.455 0 20.368-3.637 39.427-10.911 57.03-7.274 17.749-18.622 33.025-34.189 45.828s-35.353 22.987-59.649 30.552c-24.296 7.565-53.102 11.348-86.564 11.348H308.756V260.31z m90.929 217.501H548.08c21.823 0 40.009-6.11 54.557-18.622 14.549-12.512 21.823-30.261 21.823-53.539 0-26.187-6.547-44.664-19.641-55.285-13.094-10.62-32.007-16.003-56.739-16.003H399.685v143.449z m0 227.685h160.762c27.642 0 49.174-7.129 64.305-21.532 15.276-14.258 22.987-34.626 22.987-60.813 0-25.751-7.565-45.392-22.987-59.358s-36.662-20.659-64.305-20.659H399.685v162.362z" /></svg>